<svg xmlns="http://www.w3.org/2000/svg" xmlns:xlink="http://www.w3.org/1999/xlink" width="500" zoomAndPan="magnify" viewBox="0 0 375 374.999991" height="500" preserveAspectRatio="xMidYMid meet" version="1.0"><defs><g/><clipPath id="55cf0cd243"><path d="M 142.457031 112.683594 L 232.457031 112.683594 L 232.457031 202.683594 L 142.457031 202.683594 Z M 142.457031 112.683594 " clip-rule="nonzero"/></clipPath></defs><rect x="-37.5" width="450" fill="#ffffff" y="-37.499999" height="449.999989" fill-opacity="1"/><rect x="-37.5" width="450" fill="#ffffff" y="-37.499999" height="449.999989" fill-opacity="1"/><g fill="#000000" fill-opacity="1"><g transform="translate(130.664058, 233.567197)"><g><path d="M 7.8125 0.671875 C 12.171875 0.671875 14.65625 -1.84375 14.65625 -6.21875 L 14.65625 -26.234375 L 10.03125 -26.234375 L 10.03125 -6.40625 C 10.03125 -4.328125 9.109375 -3.109375 7.578125 -3.109375 C 5.84375 -3.109375 4.765625 -4.765625 4.703125 -7.578125 L 0.59375 -6.109375 C 0.84375 -1.8125 3.484375 0.671875 7.8125 0.671875 Z M 7.8125 0.671875 "/></g></g></g><g fill="#000000" fill-opacity="1"><g transform="translate(146.979327, 233.567197)"><g><path d="M 10.140625 0.671875 C 15.84375 0.671875 19.0625 -2.625 19.0625 -7.109375 C 19.0625 -10.921875 17.171875 -13.09375 12.84375 -14.578125 L 9.515625 -15.796875 C 7.03125 -16.6875 6.03125 -17.828125 6.03125 -19.6875 C 6.03125 -21.71875 7.40625 -23.234375 9.546875 -23.234375 C 11.875 -23.234375 13.4375 -21.28125 13.4375 -18.171875 L 17.6875 -19.015625 C 17.609375 -23.796875 14.5 -26.90625 9.625 -26.90625 C 4.4375 -26.90625 1.625 -23.71875 1.625 -19.421875 C 1.625 -15.65625 3.4375 -13.4375 7.578125 -12.03125 L 11.03125 -10.765625 C 13.546875 -9.8125 14.609375 -8.625 14.609375 -6.8125 C 14.609375 -4.65625 12.953125 -3.03125 10.328125 -3.03125 C 7.28125 -3.03125 5.03125 -5.328125 5.03125 -9.03125 L 0.671875 -8.25 C 0.734375 -2.84375 4.40625 0.671875 10.140625 0.671875 Z M 10.140625 0.671875 "/></g></g></g><g fill="#000000" fill-opacity="1"><g transform="translate(166.698228, 233.567197)"><g/></g></g><g fill="#000000" fill-opacity="1"><g transform="translate(172.654592, 233.567197)"><g><path d="M 8.953125 0.515625 C 13.171875 0.515625 15.984375 -2.328125 16.65625 -7.109375 L 12.765625 -7.84375 C 12.390625 -4.734375 10.984375 -2.921875 8.984375 -2.921875 C 6.546875 -2.921875 5.109375 -5.296875 5.109375 -9.390625 C 5.0625 -13.5 6.328125 -15.875 8.4375 -15.875 C 9.953125 -15.875 11.09375 -14.3125 11.5 -11.625 L 15.390625 -12.5 C 14.71875 -16.765625 12.171875 -19.34375 8.4375 -19.34375 C 3.8125 -19.34375 0.96875 -15.609375 0.921875 -9.390625 C 0.921875 -3.1875 3.953125 0.515625 8.953125 0.515625 Z M 8.953125 0.515625 "/></g></g></g><g fill="#000000" fill-opacity="1"><g transform="translate(189.931758, 233.567197)"><g><path d="M 9.109375 0.515625 C 14.140625 0.515625 17.28125 -3.328125 17.28125 -9.4375 C 17.28125 -15.5 14.140625 -19.34375 9.109375 -19.34375 C 4.109375 -19.34375 0.921875 -15.5 0.921875 -9.4375 C 0.921875 -3.328125 4.109375 0.515625 9.109375 0.515625 Z M 9.109375 -3.078125 C 6.625 -3.078125 5.109375 -5.515625 5.109375 -9.4375 C 5.109375 -13.359375 6.625 -15.6875 9.109375 -15.6875 C 11.546875 -15.6875 13.09375 -13.359375 13.09375 -9.4375 C 13.09375 -5.515625 11.546875 -3.078125 9.109375 -3.078125 Z M 9.109375 -3.078125 "/></g></g></g><g fill="#000000" fill-opacity="1"><g transform="translate(208.170813, 233.567197)"><g><path d="M 7.65625 0.484375 C 9.984375 0.484375 11.984375 -0.734375 12.84375 -2.953125 L 12.875 -2.953125 L 13.28125 0 L 16.90625 0 L 16.90625 -27.34375 L 12.734375 -27.34375 L 12.734375 -15.984375 L 12.6875 -15.984375 C 11.796875 -18.09375 9.953125 -19.3125 7.65625 -19.3125 C 3.484375 -19.3125 0.921875 -15.578125 0.921875 -9.390625 C 0.921875 -3.25 3.484375 0.484375 7.65625 0.484375 Z M 8.984375 -3.25 C 6.546875 -3.25 5.109375 -5.546875 5.109375 -9.390625 C 5.109375 -13.28125 6.546875 -15.546875 8.984375 -15.546875 C 11.4375 -15.546875 12.875 -13.28125 12.875 -9.390625 C 12.875 -5.546875 11.4375 -3.25 8.984375 -3.25 Z M 8.984375 -3.25 "/></g></g></g><g fill="#000000" fill-opacity="1"><g transform="translate(226.631849, 233.567197)"><g><path d="M 9.625 0.515625 C 13.171875 0.515625 16.125 -1.515625 16.90625 -5.0625 L 13.390625 -6.140625 C 12.875 -3.921875 11.5 -2.734375 9.515625 -2.734375 C 6.84375 -2.734375 5.1875 -4.734375 5 -8.171875 L 16.359375 -8.171875 C 16.421875 -8.40625 16.46875 -8.984375 16.46875 -9.6875 C 16.46875 -15.71875 13.578125 -19.34375 8.84375 -19.34375 C 3.921875 -19.34375 0.921875 -15.65625 0.921875 -9.546875 C 0.921875 -3.296875 4.21875 0.515625 9.625 0.515625 Z M 5.03125 -10.984375 C 5.296875 -14.171875 6.4375 -16.015625 8.84375 -16.015625 C 11.03125 -16.015625 12.171875 -14.171875 12.328125 -10.984375 Z M 5.03125 -10.984375 "/></g></g></g><g fill="#ff5757" fill-opacity="1"><g transform="translate(122.17453, 257.06717)"><g><path d="M 4.3125 -3.59375 C 6.640625 -3.59375 8.140625 -4.84375 8.140625 -7.0625 C 8.140625 -8.890625 7.140625 -10.578125 4.3125 -10.578125 L 2.109375 -10.578125 C 1.484375 -10.578125 0.9375 -10.078125 0.9375 -9.5 L 0.9375 -0.859375 C 0.9375 -0.3125 1.4375 0.140625 2 0.140625 C 2.5625 0.140625 3.046875 -0.328125 3.046875 -0.859375 L 3.046875 -3.59375 Z M 3.046875 -8.671875 L 4.3125 -8.671875 C 5.734375 -8.671875 6.046875 -7.859375 6.046875 -7.078125 C 6.046875 -6 5.4375 -5.5 4.3125 -5.5 L 3.046875 -5.5 Z M 3.046875 -8.671875 "/></g></g></g><g fill="#ff5757" fill-opacity="1"><g transform="translate(131.159529, 257.06717)"><g><path d="M 4.484375 -5.796875 C 5.0625 -5.765625 5.53125 -6.15625 5.53125 -6.734375 C 5.53125 -7.25 5.25 -7.640625 4.3125 -7.640625 C 3.828125 -7.640625 3.140625 -7.390625 2.4375 -6.984375 C 2.234375 -7.265625 1.96875 -7.453125 1.65625 -7.453125 C 1.109375 -7.453125 0.625 -7.09375 0.625 -6.5625 C 0.625 -6.328125 0.71875 -6.203125 0.84375 -6.0625 C 0.953125 -5.875 1 -5.703125 1 -5.359375 L 1 -0.828125 C 1 -0.296875 1.453125 0.109375 2.046875 0.109375 C 2.625 0.109375 3.078125 -0.296875 3.078125 -0.828125 L 3.078125 -5.359375 C 3.078125 -5.4375 3.0625 -5.53125 3.046875 -5.640625 C 3.5625 -5.84375 3.84375 -5.8125 4.484375 -5.796875 Z M 4.484375 -5.796875 "/></g></g></g><g fill="#ff5757" fill-opacity="1"><g transform="translate(137.249528, 257.06717)"><g><path d="M 3.9375 0.109375 C 6.0625 0.109375 7.1875 -1.109375 7.1875 -2.6875 L 7.1875 -4.921875 C 7.1875 -6.5 6.0625 -7.703125 3.9375 -7.703125 C 1.796875 -7.703125 0.671875 -6.5 0.671875 -4.921875 L 0.671875 -2.6875 C 0.671875 -1.109375 1.796875 0.109375 3.9375 0.109375 Z M 3.9375 -1.671875 C 3.15625 -1.671875 2.75 -2.0625 2.75 -2.6875 L 2.75 -4.9375 C 2.75 -5.546875 3.15625 -5.9375 3.9375 -5.9375 C 4.703125 -5.9375 5.109375 -5.546875 5.109375 -4.9375 L 5.109375 -2.6875 C 5.109375 -2.0625 4.703125 -1.671875 3.9375 -1.671875 Z M 3.9375 -1.671875 "/></g></g></g><g fill="#ff5757" fill-opacity="1"><g transform="translate(145.544528, 257.06717)"><g><path d="M 0.53125 1.203125 C 0.53125 2.703125 1.890625 3.625 3.859375 3.625 C 5.890625 3.625 7.375 2.640625 7.375 1.046875 C 7.375 -0.546875 5.875 -1.265625 3.9375 -1.265625 L 3.296875 -1.265625 C 3.125 -1.265625 2.875 -1.3125 2.875 -1.734375 C 2.875 -1.84375 2.890625 -1.890625 2.96875 -2.078125 C 3.234375 -2.03125 3.5625 -2.015625 3.796875 -2.015625 C 5.984375 -2.015625 7.015625 -3.1875 7.015625 -4.734375 L 7.015625 -5.578125 C 7.015625 -6 7.171875 -6.140625 7.6875 -6.59375 C 7.796875 -6.6875 7.9375 -6.890625 7.9375 -7.140625 C 7.9375 -7.640625 7.46875 -8.015625 6.953125 -8.015625 C 6.546875 -8.015625 6.046875 -7.734375 5.640625 -7.1875 C 5 -7.5 4.390625 -7.6875 3.625 -7.6875 C 1.703125 -7.6875 0.625 -6.46875 0.625 -4.84375 C 0.625 -4.015625 0.9375 -3.3125 1.59375 -2.78125 C 1.28125 -2.390625 1.171875 -2.03125 1.171875 -1.6875 C 1.171875 -1.359375 1.25 -0.875 1.484375 -0.453125 C 0.78125 0.125 0.53125 0.609375 0.53125 1.203125 Z M 4.953125 -5.78125 L 4.953125 -4.71875 C 4.953125 -4.046875 4.609375 -3.625 3.859375 -3.625 C 3.046875 -3.625 2.703125 -4.09375 2.703125 -4.8125 C 2.703125 -5.59375 3.125 -6.03125 3.890625 -6.03125 C 4.234375 -6.03125 4.5625 -5.9375 4.953125 -5.78125 Z M 3.953125 0.4375 C 4.890625 0.4375 5.3125 0.640625 5.3125 1.09375 C 5.3125 1.625 4.734375 1.9375 3.890625 1.9375 C 3.015625 1.9375 2.59375 1.609375 2.59375 1.046875 C 2.59375 0.8125 2.6875 0.640625 2.859375 0.421875 Z M 3.953125 0.4375 "/></g></g></g><g fill="#ff5757" fill-opacity="1"><g transform="translate(153.974523, 257.06717)"><g><path d="M 4.484375 -5.796875 C 5.0625 -5.765625 5.53125 -6.15625 5.53125 -6.734375 C 5.53125 -7.25 5.25 -7.640625 4.3125 -7.640625 C 3.828125 -7.640625 3.140625 -7.390625 2.4375 -6.984375 C 2.234375 -7.265625 1.96875 -7.453125 1.65625 -7.453125 C 1.109375 -7.453125 0.625 -7.09375 0.625 -6.5625 C 0.625 -6.328125 0.71875 -6.203125 0.84375 -6.0625 C 0.953125 -5.875 1 -5.703125 1 -5.359375 L 1 -0.828125 C 1 -0.296875 1.453125 0.109375 2.046875 0.109375 C 2.625 0.109375 3.078125 -0.296875 3.078125 -0.828125 L 3.078125 -5.359375 C 3.078125 -5.4375 3.0625 -5.53125 3.046875 -5.640625 C 3.5625 -5.84375 3.84375 -5.8125 4.484375 -5.796875 Z M 4.484375 -5.796875 "/></g></g></g><g fill="#ff5757" fill-opacity="1"><g transform="translate(160.064522, 257.06717)"><g><path d="M 6.75 -4.59375 C 6.75 -6.609375 5.859375 -7.6875 3.6875 -7.6875 C 2.4375 -7.6875 1.125 -7.328125 1.125 -6.453125 C 1.125 -6.078125 1.359375 -5.578125 2 -5.578125 C 2.28125 -5.578125 2.4375 -5.6875 2.5625 -5.734375 C 2.859375 -5.859375 3.125 -5.96875 3.546875 -5.96875 C 4.3125 -5.96875 4.6875 -5.640625 4.6875 -4.9375 L 4.6875 -4.453125 C 4.296875 -4.578125 3.90625 -4.609375 3.5 -4.609375 C 1.515625 -4.609375 0.53125 -3.84375 0.53125 -2.3125 L 0.53125 -2.265625 C 0.53125 -0.84375 1.453125 0.109375 3.1875 0.109375 C 4.03125 0.109375 4.671875 -0.125 5.21875 -0.5625 C 5.5625 -0.09375 5.9375 0.0625 6.5 0.0625 C 7.296875 0.0625 7.578125 -0.234375 7.578125 -0.71875 C 7.578125 -1.03125 7.453125 -1.203125 7.234375 -1.296875 C 6.96875 -1.390625 6.75 -1.34375 6.75 -1.796875 Z M 3.609375 -3.15625 C 3.921875 -3.15625 4.3125 -3.109375 4.6875 -3.03125 L 4.6875 -1.953125 C 4.296875 -1.65625 3.90625 -1.5625 3.515625 -1.5625 C 2.859375 -1.5625 2.578125 -1.75 2.578125 -2.25 L 2.578125 -2.296875 C 2.578125 -2.75 2.75 -3.15625 3.609375 -3.15625 Z M 3.609375 -3.15625 "/></g></g></g><g fill="#ff5757" fill-opacity="1"><g transform="translate(168.329516, 257.06717)"><g><path d="M 9.21875 -0.828125 C 9.21875 -0.3125 9.5625 0.09375 10.265625 0.09375 C 10.953125 0.09375 11.296875 -0.3125 11.296875 -0.828125 L 11.296875 -5.015625 C 11.296875 -6.609375 10.203125 -7.6875 8.4375 -7.6875 C 7.625 -7.6875 6.96875 -7.46875 6.171875 -7.03125 C 5.625 -7.46875 5.0625 -7.6875 4.421875 -7.6875 C 3.78125 -7.6875 3.078125 -7.453125 2.40625 -7.03125 C 2.203125 -7.296875 1.953125 -7.453125 1.609375 -7.453125 C 1.09375 -7.453125 0.625 -7.109375 0.625 -6.5625 C 0.625 -6.40625 0.671875 -6.28125 0.890625 -6 C 0.9375 -5.90625 1 -5.859375 1 -5.375 L 1 -0.828125 C 1 -0.3125 1.34375 0.09375 2.046875 0.09375 C 2.734375 0.09375 3.078125 -0.3125 3.078125 -0.828125 L 3.078125 -5.375 C 3.078125 -5.421875 3.078125 -5.484375 3.0625 -5.53125 C 3.515625 -5.765625 3.953125 -5.921875 4.328125 -5.921875 C 5 -5.921875 5.109375 -5.40625 5.109375 -4.703125 L 5.109375 -0.828125 C 5.109375 -0.3125 5.453125 0.09375 6.15625 0.09375 C 6.84375 0.09375 7.1875 -0.3125 7.1875 -0.828125 L 7.1875 -5.015625 C 7.1875 -5.140625 7.171875 -5.265625 7.15625 -5.40625 C 7.5625 -5.734375 7.96875 -5.921875 8.359375 -5.921875 C 8.90625 -5.921875 9.21875 -5.5 9.21875 -4.984375 Z M 9.21875 -0.828125 "/></g></g></g><g fill="#ff5757" fill-opacity="1"><g transform="translate(181.034511, 257.06717)"><g><path d="M 9.21875 -0.828125 C 9.21875 -0.3125 9.5625 0.09375 10.265625 0.09375 C 10.953125 0.09375 11.296875 -0.3125 11.296875 -0.828125 L 11.296875 -5.015625 C 11.296875 -6.609375 10.203125 -7.6875 8.4375 -7.6875 C 7.625 -7.6875 6.96875 -7.46875 6.171875 -7.03125 C 5.625 -7.46875 5.0625 -7.6875 4.421875 -7.6875 C 3.78125 -7.6875 3.078125 -7.453125 2.40625 -7.03125 C 2.203125 -7.296875 1.953125 -7.453125 1.609375 -7.453125 C 1.09375 -7.453125 0.625 -7.109375 0.625 -6.5625 C 0.625 -6.40625 0.671875 -6.28125 0.890625 -6 C 0.9375 -5.90625 1 -5.859375 1 -5.375 L 1 -0.828125 C 1 -0.3125 1.34375 0.09375 2.046875 0.09375 C 2.734375 0.09375 3.078125 -0.3125 3.078125 -0.828125 L 3.078125 -5.375 C 3.078125 -5.421875 3.078125 -5.484375 3.0625 -5.53125 C 3.515625 -5.765625 3.953125 -5.921875 4.328125 -5.921875 C 5 -5.921875 5.109375 -5.40625 5.109375 -4.703125 L 5.109375 -0.828125 C 5.109375 -0.3125 5.453125 0.09375 6.15625 0.09375 C 6.84375 0.09375 7.1875 -0.3125 7.1875 -0.828125 L 7.1875 -5.015625 C 7.1875 -5.140625 7.171875 -5.265625 7.15625 -5.40625 C 7.5625 -5.734375 7.96875 -5.921875 8.359375 -5.921875 C 8.90625 -5.921875 9.21875 -5.5 9.21875 -4.984375 Z M 9.21875 -0.828125 "/></g></g></g><g fill="#ff5757" fill-opacity="1"><g transform="translate(193.739501, 257.06717)"><g><path d="M 3.296875 -9.65625 C 3.296875 -10.234375 2.796875 -10.703125 2.125 -10.703125 C 1.46875 -10.703125 0.953125 -10.25 0.953125 -9.65625 C 0.953125 -9.09375 1.46875 -8.609375 2.125 -8.609375 C 2.796875 -8.609375 3.296875 -9.078125 3.296875 -9.65625 Z M 3.171875 -6.734375 C 3.171875 -7.234375 2.71875 -7.65625 2.125 -7.65625 C 1.546875 -7.65625 1.09375 -7.234375 1.09375 -6.734375 L 1.09375 -0.828125 C 1.09375 -0.296875 1.546875 0.109375 2.125 0.109375 C 2.71875 0.109375 3.171875 -0.296875 3.171875 -0.828125 Z M 3.171875 -6.734375 "/></g></g></g><g fill="#ff5757" fill-opacity="1"><g transform="translate(198.4495, 257.06717)"><g><path d="M 3.078125 -5.359375 C 3.078125 -5.4375 3.0625 -5.53125 3.046875 -5.640625 C 3.515625 -5.84375 3.890625 -5.953125 4.203125 -5.953125 C 4.796875 -5.953125 5.171875 -5.484375 5.171875 -4.734375 L 5.171875 -0.828125 C 5.171875 -0.3125 5.546875 0.09375 6.203125 0.09375 C 6.875 0.09375 7.25 -0.3125 7.25 -0.828125 L 7.25 -4.734375 C 7.25 -6.5 6.296875 -7.671875 4.40625 -7.671875 C 3.8125 -7.671875 3.109375 -7.46875 2.4375 -7.015625 C 2.21875 -7.296875 1.953125 -7.453125 1.640625 -7.453125 C 1.0625 -7.453125 0.625 -7.078125 0.625 -6.578125 C 0.625 -6.390625 0.671875 -6.28125 0.890625 -6 C 0.9375 -5.90625 1 -5.859375 1 -5.375 L 1 -0.828125 C 1 -0.3125 1.34375 0.09375 2.046875 0.09375 C 2.734375 0.09375 3.078125 -0.3125 3.078125 -0.828125 Z M 3.078125 -5.359375 "/></g></g></g><g fill="#ff5757" fill-opacity="1"><g transform="translate(207.119497, 257.06717)"><g><path d="M 0.53125 1.203125 C 0.53125 2.703125 1.890625 3.625 3.859375 3.625 C 5.890625 3.625 7.375 2.640625 7.375 1.046875 C 7.375 -0.546875 5.875 -1.265625 3.9375 -1.265625 L 3.296875 -1.265625 C 3.125 -1.265625 2.875 -1.3125 2.875 -1.734375 C 2.875 -1.84375 2.890625 -1.890625 2.96875 -2.078125 C 3.234375 -2.03125 3.5625 -2.015625 3.796875 -2.015625 C 5.984375 -2.015625 7.015625 -3.1875 7.015625 -4.734375 L 7.015625 -5.578125 C 7.015625 -6 7.171875 -6.140625 7.6875 -6.59375 C 7.796875 -6.6875 7.9375 -6.890625 7.9375 -7.140625 C 7.9375 -7.640625 7.46875 -8.015625 6.953125 -8.015625 C 6.546875 -8.015625 6.046875 -7.734375 5.640625 -7.1875 C 5 -7.5 4.390625 -7.6875 3.625 -7.6875 C 1.703125 -7.6875 0.625 -6.46875 0.625 -4.84375 C 0.625 -4.015625 0.9375 -3.3125 1.59375 -2.78125 C 1.28125 -2.390625 1.171875 -2.03125 1.171875 -1.6875 C 1.171875 -1.359375 1.25 -0.875 1.484375 -0.453125 C 0.78125 0.125 0.53125 0.609375 0.53125 1.203125 Z M 4.953125 -5.78125 L 4.953125 -4.71875 C 4.953125 -4.046875 4.609375 -3.625 3.859375 -3.625 C 3.046875 -3.625 2.703125 -4.09375 2.703125 -4.8125 C 2.703125 -5.59375 3.125 -6.03125 3.890625 -6.03125 C 4.234375 -6.03125 4.5625 -5.9375 4.953125 -5.78125 Z M 3.953125 0.4375 C 4.890625 0.4375 5.3125 0.640625 5.3125 1.09375 C 5.3125 1.625 4.734375 1.9375 3.890625 1.9375 C 3.015625 1.9375 2.59375 1.609375 2.59375 1.046875 C 2.59375 0.8125 2.6875 0.640625 2.859375 0.421875 Z M 3.953125 0.4375 "/></g></g></g><g fill="#ff5757" fill-opacity="1"><g transform="translate(215.549489, 257.06717)"><g/></g></g><g fill="#ff5757" fill-opacity="1"><g transform="translate(220.48449, 257.06717)"><g><path d="M 2.625 -6.78125 C 2.625 -8.0625 3.078125 -8.875 4.421875 -8.875 C 4.90625 -8.875 5.296875 -8.765625 5.671875 -8.515625 L 5.8125 -8.4375 C 6.015625 -8.3125 6.125 -8.203125 6.46875 -8.203125 C 7.03125 -8.203125 7.453125 -8.625 7.453125 -9.109375 C 7.453125 -9.96875 5.9375 -10.703125 4.34375 -10.703125 C 1.71875 -10.703125 0.53125 -9.15625 0.53125 -6.78125 L 0.53125 -3.8125 C 0.53125 -1.4375 1.71875 0.125 4.34375 0.125 C 5.9375 0.125 7.453125 -0.609375 7.453125 -1.484375 C 7.453125 -1.96875 7.03125 -2.390625 6.46875 -2.390625 C 6.125 -2.390625 6.015625 -2.28125 5.8125 -2.15625 L 5.671875 -2.0625 C 5.296875 -1.828125 4.90625 -1.703125 4.421875 -1.703125 C 3.078125 -1.703125 2.625 -2.515625 2.625 -3.8125 Z M 2.625 -6.78125 "/></g></g></g><g fill="#ff5757" fill-opacity="1"><g transform="translate(228.749482, 257.06717)"><g><path d="M 3.9375 0.109375 C 6.0625 0.109375 7.1875 -1.109375 7.1875 -2.6875 L 7.1875 -4.921875 C 7.1875 -6.5 6.0625 -7.703125 3.9375 -7.703125 C 1.796875 -7.703125 0.671875 -6.5 0.671875 -4.921875 L 0.671875 -2.6875 C 0.671875 -1.109375 1.796875 0.109375 3.9375 0.109375 Z M 3.9375 -1.671875 C 3.15625 -1.671875 2.75 -2.0625 2.75 -2.6875 L 2.75 -4.9375 C 2.75 -5.546875 3.15625 -5.9375 3.9375 -5.9375 C 4.703125 -5.9375 5.109375 -5.546875 5.109375 -4.9375 L 5.109375 -2.6875 C 5.109375 -2.0625 4.703125 -1.671875 3.9375 -1.671875 Z M 3.9375 -1.671875 "/></g></g></g><g fill="#ff5757" fill-opacity="1"><g transform="translate(237.044479, 257.06717)"><g><path d="M 3.53125 -7.640625 C 1.375 -7.640625 0.671875 -6.3125 0.671875 -4.53125 L 0.671875 -2.828125 C 0.671875 -1.078125 1.6875 0.109375 3.421875 0.109375 C 4.1875 0.109375 4.796875 -0.15625 5.53125 -0.5625 C 5.765625 -0.21875 6.0625 0.015625 6.4375 0.015625 C 6.90625 0.015625 7.40625 -0.296875 7.40625 -0.90625 C 7.40625 -1.109375 7.34375 -1.265625 7.203125 -1.40625 C 7 -1.609375 6.921875 -1.703125 6.921875 -1.9375 L 6.921875 -9.921875 C 6.921875 -10.40625 6.546875 -10.828125 5.875 -10.828125 C 5.21875 -10.828125 4.84375 -10.421875 4.84375 -9.921875 L 4.84375 -7.34375 C 4.3125 -7.578125 3.984375 -7.640625 3.53125 -7.640625 Z M 4.84375 -2.234375 C 4.84375 -2.140625 4.859375 -2.0625 4.875 -1.953125 C 4.40625 -1.734375 4.03125 -1.640625 3.71875 -1.640625 C 3.078125 -1.640625 2.75 -2.0625 2.75 -2.828125 L 2.75 -4.53125 C 2.75 -5.453125 3.015625 -5.921875 3.75 -5.921875 C 4 -5.921875 4.375 -5.859375 4.84375 -5.734375 Z M 4.84375 -2.234375 "/></g></g></g><g fill="#ff5757" fill-opacity="1"><g transform="translate(245.549476, 257.06717)"><g><path d="M 3.90625 -2.859375 C 5.921875 -2.859375 6.8125 -3.703125 6.8125 -5.140625 C 6.8125 -6.65625 5.828125 -7.6875 3.875 -7.6875 C 1.78125 -7.6875 0.671875 -6.546875 0.671875 -5.03125 L 0.671875 -2.515625 C 0.671875 -1.03125 1.8125 0.109375 3.796875 0.109375 C 4.75 0.109375 6.671875 -0.171875 6.671875 -1.21875 C 6.671875 -1.5625 6.46875 -2.046875 5.75 -2.046875 C 5.484375 -2.046875 5.359375 -1.984375 5.296875 -1.953125 C 4.8125 -1.734375 4.421875 -1.625 3.9375 -1.625 C 3.140625 -1.625 2.75 -1.953125 2.75 -2.453125 L 2.75 -2.953125 C 3.1875 -2.890625 3.515625 -2.859375 3.90625 -2.859375 Z M 4.75 -5.25 C 4.75 -4.609375 4.390625 -4.40625 3.828125 -4.40625 C 3.671875 -4.40625 3.21875 -4.421875 2.75 -4.46875 L 2.75 -5.109375 C 2.75 -5.71875 3.140625 -6.09375 3.859375 -6.09375 C 4.4375 -6.09375 4.75 -5.84375 4.75 -5.25 Z M 4.75 -5.25 "/></g></g></g><g clip-path="url(#55cf0cd243)"><path fill="#ff5757" d="M 197.488281 112.683594 C 178.175781 112.683594 162.4375 128.421875 162.4375 147.734375 C 162.4375 156.109375 165.792969 163.507812 170.71875 169.546875 L 142.433594 197.832031 L 147.390625 202.789062 L 175.675781 174.5 C 181.714844 179.429688 189.113281 182.785156 197.488281 182.785156 C 216.800781 182.785156 232.539062 167.046875 232.539062 147.734375 C 232.539062 128.421875 216.800781 112.683594 197.488281 112.683594 Z M 197.488281 119.691406 C 213.011719 119.691406 225.53125 132.210938 225.53125 147.734375 C 225.53125 163.253906 213.011719 175.773438 197.488281 175.773438 C 181.96875 175.773438 169.449219 163.253906 169.449219 147.734375 C 169.449219 132.210938 181.96875 119.691406 197.488281 119.691406 Z M 187.089844 134.972656 L 176.457031 147.734375 L 187.089844 160.496094 L 192.476562 156.003906 L 185.582031 147.734375 L 192.476562 139.464844 Z M 207.929688 134.972656 L 202.539062 139.464844 L 209.433594 147.734375 L 202.539062 156.003906 L 207.929688 160.496094 L 218.566406 147.734375 Z M 207.929688 134.972656 " fill-opacity="1" fill-rule="nonzero"/></g></svg>